<mxfile host="app.diagrams.net" modified="2024-06-09T13:48:04.015Z" agent="Mozilla/5.0 (Macintosh; Intel Mac OS X 10_15_7) AppleWebKit/537.36 (KHTML, like Gecko) Chrome/125.0.0.0 Safari/537.36" etag="ocnoUKCumW1YEnfu0iO5" version="24.5.2" type="github">
  <diagram name="Page-1" id="Auj2j37J0kR2W5HDAG3R">
    <mxGraphModel dx="737" dy="519" grid="1" gridSize="10" guides="1" tooltips="1" connect="1" arrows="1" fold="1" page="1" pageScale="1" pageWidth="827" pageHeight="1169" math="0" shadow="0">
      <root>
        <mxCell id="0" />
        <mxCell id="1" parent="0" />
        <mxCell id="7db-qRW7OFAw59uM3vvi-27" style="edgeStyle=orthogonalEdgeStyle;rounded=0;orthogonalLoop=1;jettySize=auto;html=1;exitX=0.5;exitY=1;exitDx=0;exitDy=0;endArrow=none;endFill=0;entryX=0.5;entryY=0;entryDx=0;entryDy=0;" parent="1" source="7db-qRW7OFAw59uM3vvi-1" target="7db-qRW7OFAw59uM3vvi-13" edge="1">
          <mxGeometry relative="1" as="geometry">
            <mxPoint x="230" y="390" as="targetPoint" />
          </mxGeometry>
        </mxCell>
        <mxCell id="7db-qRW7OFAw59uM3vvi-28" style="edgeStyle=orthogonalEdgeStyle;rounded=0;orthogonalLoop=1;jettySize=auto;html=1;exitX=0.75;exitY=1;exitDx=0;exitDy=0;entryX=0;entryY=0.5;entryDx=0;entryDy=0;endArrow=none;endFill=0;" parent="1" source="7db-qRW7OFAw59uM3vvi-1" target="7db-qRW7OFAw59uM3vvi-15" edge="1">
          <mxGeometry relative="1" as="geometry" />
        </mxCell>
        <mxCell id="7db-qRW7OFAw59uM3vvi-1" value="«Component»&lt;br&gt;&lt;b&gt;User Interface&lt;/b&gt;" style="html=1;dropTarget=0;whiteSpace=wrap;fillColor=#d5e8d4;strokeColor=#82b366;gradientColor=#97d077;" parent="1" vertex="1">
          <mxGeometry x="310" y="135" width="180" height="90" as="geometry" />
        </mxCell>
        <mxCell id="7db-qRW7OFAw59uM3vvi-2" value="" style="shape=module;jettyWidth=8;jettyHeight=4;" parent="7db-qRW7OFAw59uM3vvi-1" vertex="1">
          <mxGeometry x="1" width="20" height="20" relative="1" as="geometry">
            <mxPoint x="-27" y="7" as="offset" />
          </mxGeometry>
        </mxCell>
        <mxCell id="7db-qRW7OFAw59uM3vvi-6" value="" style="edgeStyle=orthogonalEdgeStyle;rounded=0;orthogonalLoop=1;jettySize=auto;html=1;" parent="1" source="7db-qRW7OFAw59uM3vvi-3" target="7db-qRW7OFAw59uM3vvi-1" edge="1">
          <mxGeometry relative="1" as="geometry" />
        </mxCell>
        <mxCell id="7db-qRW7OFAw59uM3vvi-3" value="Actor" style="shape=umlActor;verticalLabelPosition=bottom;verticalAlign=top;html=1;outlineConnect=0;" parent="1" vertex="1">
          <mxGeometry x="215" y="150" width="30" height="60" as="geometry" />
        </mxCell>
        <mxCell id="7db-qRW7OFAw59uM3vvi-9" value="«component»&lt;br&gt;&lt;b&gt;Service User Registration&lt;/b&gt;" style="html=1;dropTarget=0;whiteSpace=wrap;fillColor=#ffcd28;strokeColor=#d79b00;gradientColor=#ffa500;" parent="1" vertex="1">
          <mxGeometry x="140" y="270" width="180" height="90" as="geometry" />
        </mxCell>
        <mxCell id="7db-qRW7OFAw59uM3vvi-10" value="" style="shape=module;jettyWidth=8;jettyHeight=4;" parent="7db-qRW7OFAw59uM3vvi-9" vertex="1">
          <mxGeometry x="1" width="20" height="20" relative="1" as="geometry">
            <mxPoint x="-27" y="7" as="offset" />
          </mxGeometry>
        </mxCell>
        <mxCell id="7db-qRW7OFAw59uM3vvi-13" value="«component»&lt;br&gt;&lt;b&gt;Service FL Training and Aggregation&lt;/b&gt;" style="html=1;dropTarget=0;whiteSpace=wrap;fillColor=#e6d0de;strokeColor=#996185;gradientColor=#d5739d;" parent="1" vertex="1">
          <mxGeometry x="310" y="400" width="180" height="90" as="geometry" />
        </mxCell>
        <mxCell id="7db-qRW7OFAw59uM3vvi-14" value="" style="shape=module;jettyWidth=8;jettyHeight=4;" parent="7db-qRW7OFAw59uM3vvi-13" vertex="1">
          <mxGeometry x="1" width="20" height="20" relative="1" as="geometry">
            <mxPoint x="-27" y="7" as="offset" />
          </mxGeometry>
        </mxCell>
        <mxCell id="7db-qRW7OFAw59uM3vvi-15" value="«component»&lt;br&gt;&lt;b&gt;Service Communication&lt;/b&gt;" style="html=1;dropTarget=0;whiteSpace=wrap;fillColor=#f8cecc;gradientColor=#ea6b66;strokeColor=#b85450;" parent="1" vertex="1">
          <mxGeometry x="470" y="270" width="180" height="90" as="geometry" />
        </mxCell>
        <mxCell id="7db-qRW7OFAw59uM3vvi-16" value="" style="shape=module;jettyWidth=8;jettyHeight=4;" parent="7db-qRW7OFAw59uM3vvi-15" vertex="1">
          <mxGeometry x="1" width="20" height="20" relative="1" as="geometry">
            <mxPoint x="-27" y="7" as="offset" />
          </mxGeometry>
        </mxCell>
        <mxCell id="7db-qRW7OFAw59uM3vvi-25" style="edgeStyle=orthogonalEdgeStyle;rounded=0;orthogonalLoop=1;jettySize=auto;html=1;exitX=0.25;exitY=1;exitDx=0;exitDy=0;entryX=1;entryY=0.622;entryDx=0;entryDy=0;entryPerimeter=0;endArrow=none;endFill=0;" parent="1" source="7db-qRW7OFAw59uM3vvi-1" target="7db-qRW7OFAw59uM3vvi-9" edge="1">
          <mxGeometry relative="1" as="geometry" />
        </mxCell>
      </root>
    </mxGraphModel>
  </diagram>
</mxfile>
